<svg xmlns="http://www.w3.org/2000/svg" xmlns:xlink="http://www.w3.org/1999/xlink" id="Laag_1" x="0px" y="0px" viewBox="0 0 3921.3 516" style="enable-background:new 0 0 3921.3 516;" xml:space="preserve"><style type="text/css">	.st0{fill:#FFFFFF;}</style><g>	<path class="st0" d="M284,232.2H0v258C0,504.4,11.6,516,25.8,516s25.8-11.6,25.8-25.8V283.8H284c14.3,0,25.8-11.6,25.8-25.8  C309.8,243.7,298.2,232.2,284,232.2z"></path>	<path class="st0" d="M2708.8,0.1c-14.3,0-25.8,11.5-25.8,25.8v464.2c0,14.3,11.6,25.8,25.8,25.8s25.8-11.6,25.8-25.8V25.9  C2734.6,11.6,2723.1,0.1,2708.8,0.1z"></path>	<path class="st0" d="M284,0H25.8C11.6,0,0,11.6,0,25.8s11.6,25.8,25.8,25.8H284c14.3,0,25.8-11.6,25.8-25.8S298.2,0,284,0z"></path>	<path class="st0" d="M2502.4,0H2141c-14.3,0-25.8,11.6-25.8,25.8s11.5,25.8,25.8,25.8h361.5c14.3,0,25.8-11.6,25.8-25.8  S2516.7,0,2502.4,0z"></path>	<path class="st0" d="M800,0c-14.3,0-25.8,11.6-25.8,25.8v315.3c0,67.9-57.9,123.2-129.1,123.2s-129.1-55.3-129.1-123.2V25.9  c0-14.3-11.6-25.8-25.8-25.8c-14.3,0-25.8,11.6-25.8,25.8v315.3c0,96.4,81,174.8,180.7,174.8s180.7-78.4,180.7-174.8V25.9  C825.9,11.6,814.3,0,800,0z"></path>	<path class="st0" d="M1027,10c-8.8-11.3-25-13.3-36.2-4.5c-11.3,8.8-13.3,25-4.5,36.2l361.2,464.1c5.1,6.5,12.7,10,20.4,10  c5.5,0,11.1-1.8,15.8-5.4c11.3-8.8,13.3-25,4.5-36.2L1027,10z"></path>	<path class="st0" d="M3915.9,474.1L3554.7,10c-8.8-11.3-25-13.3-36.2-4.5c-11.3,8.8-13.3,25-4.5,36.2l361.2,464.1  c5.1,6.5,12.7,10,20.4,10c5.5,0,11.1-1.8,15.8-5.4C3922.6,501.6,3924.6,485.4,3915.9,474.1z"></path>	<path class="st0" d="M3147.5,0c-142.3,0-258,115.7-258,258s115.7,258,258,258s258-115.7,258-258S3289.7,0,3147.5,0z M3147.5,464.4  c-113.8,0-206.4-92.6-206.4-206.4s92.6-206.4,206.4-206.4s206.4,92.6,206.4,206.4S3261.3,464.4,3147.5,464.4z"></path>	<path class="st0" d="M1951,5.5c-11.3-8.8-27.5-6.7-36.2,4.5l-160.2,205.9L1594.3,10c-8.8-11.3-25-13.3-36.2-4.5  c-11.3,8.8-13.3,25-4.5,36.2l168.3,216.2l-168.3,216.2c-8.8,11.3-6.7,27.5,4.5,36.2c4.7,3.7,10.3,5.4,15.8,5.4  c7.7,0,15.3-3.4,20.4-10L1754.5,300l160.2,205.9c5.1,6.5,12.7,10,20.4,10c5.5,0,11.1-1.8,15.8-5.4c11.3-8.8,13.3-25,4.5-36.2  l-168.3-216.2l168.3-216.2C1964.3,30.5,1962.3,14.3,1951,5.5z"></path></g><g></g><g></g><g></g><g></g><g></g><g></g></svg>